<svg width="1920" height="1080" viewBox="0 0 1920 1080" fill="none" xmlns="http://www.w3.org/2000/svg">
<g clip-path="url(#clip0_39_21)">
<path d="M1514.39 160.349L1670.71 295.373L1778.39 47.3936L1634.16 -44.2727L1514.39 160.349Z" fill="url(#paint0_linear_39_21)" fill-opacity="0.2"/>
<path d="M591 43.7725L628.012 -83L772 12.6986L726.411 112L591 43.7725Z" fill="url(#paint1_linear_39_21)" fill-opacity="0.2"/>
<path d="M1158.86 161.897L1088.31 403.09L813.86 221.017L900.755 32.0898L1158.86 161.897Z" fill="url(#paint2_linear_39_21)" fill-opacity="0.2"/>
<path d="M1464.1 -22.6637L1310.11 -160.331L1198.22 85.7775L1340.87 179.888L1464.1 -22.6637Z" fill="url(#paint3_linear_39_21)" fill-opacity="0.2"/>
</g>
<defs>
<linearGradient id="paint0_linear_39_21" x1="1776.66" y1="44.7325" x2="1520.44" y2="304.023" gradientUnits="userSpaceOnUse">
<stop stop-color="white" stop-opacity="0"/>
<stop offset="1" stop-color="white"/>
</linearGradient>
<linearGradient id="paint1_linear_39_21" x1="772" y1="14.7252" x2="544.331" y2="-35.4806" gradientUnits="userSpaceOnUse">
<stop stop-color="white" stop-opacity="0"/>
<stop offset="1" stop-color="white"/>
</linearGradient>
<linearGradient id="paint2_linear_39_21" x1="813.86" y1="217.161" x2="1247.74" y2="313.018" gradientUnits="userSpaceOnUse">
<stop stop-color="white" stop-opacity="0"/>
<stop offset="1" stop-color="white"/>
</linearGradient>
<linearGradient id="paint3_linear_39_21" x1="1199.9" y1="88.4676" x2="1460.5" y2="-166.42" gradientUnits="userSpaceOnUse">
<stop stop-color="white" stop-opacity="0"/>
<stop offset="1" stop-color="white"/>
</linearGradient>
<clipPath id="clip0_39_21">
<rect width="1920" height="1080" fill="white"/>
</clipPath>
</defs>
</svg>
