<svg id="Compie_Horizonal_Lime" xmlns="http://www.w3.org/2000/svg" width="2762.97" height="554.144" viewBox="0 0 2762.97 554.144">
  <g id="Group_32" data-name="Group 32" transform="translate(1 1429.051)">
    <path id="Path_22" data-name="Path 22" d="M1117.091-970.942c-104.489,0-189.5-85.009-189.5-189.5s85.008-189.5,189.5-189.5,189.5,85.009,189.5,189.5S1221.58-970.942,1117.091-970.942Zm0-320.593c-72.285,0-131.094,58.809-131.094,131.1s58.809,131.094,131.094,131.094,131.1-58.808,131.1-131.094S1189.377-1291.535,1117.091-1291.535Z" fill="#ceff00"/>
    <path id="Path_23" data-name="Path 23" d="M2081.481-1355.345c-103.749,0-188.277,83.812-189.47,187.283h-.995v293.155h58.4v-155.182a188.855,188.855,0,0,0,132.062,53.739c104.489,0,189.5-85.009,189.5-189.5S2185.97-1355.345,2081.481-1355.345Zm0,320.592c-72.286,0-131.095-58.809-131.095-131.095s58.809-131.094,131.095-131.094,131.092,58.809,131.092,131.094S2153.764-1034.753,2081.481-1034.753Z" fill="#ceff00"/>
    <g id="Group_28" data-name="Group 28">
      <rect id="Rectangle_13" data-name="Rectangle 13" width="58.403" height="354.85" transform="translate(2298.885 -1333.759)" fill="#ceff00"/>
      <rect id="Rectangle_14" data-name="Rectangle 14" width="58.403" height="58.403" transform="translate(2298.408 -1429.051)" fill="#ceff00"/>
    </g>
    <g id="Group_29" data-name="Group 29">
      <path id="Path_24" data-name="Path 24" d="M1780.244-1347.029a168.764,168.764,0,0,0-139.517,73.889,168.771,168.771,0,0,0-139.52-73.889c-93.091,0-168.824,75.735-168.824,168.826v201.959h58.4V-1178.2a110.549,110.549,0,0,1,110.423-110.423,110.538,110.538,0,0,1,110.316,106.3c-.033,1.375-.1,2.74-.1,4.122v201.959h58.612V-1178.2c0-1.382-.071-2.747-.1-4.122a110.539,110.539,0,0,1,110.318-106.3,110.446,110.446,0,0,1,94.108,52.734c6.3-17.658,16.028-37.387,31.062-55.471A168.43,168.43,0,0,0,1780.244-1347.029Z" fill="#ceff00"/>
    </g>
    <g id="Group_30" data-name="Group 30">
      <path id="Path_25" data-name="Path 25" d="M726.146-1034.753c-72.285,0-131.094-58.809-131.094-131.095s58.809-131.094,131.094-131.094a131.109,131.109,0,0,1,114.613,67.7h63.932c-26.14-73.4-96.286-126.1-178.545-126.1-104.489,0-189.5,85.009-189.5,189.5s85.008,189.5,189.5,189.5c82.259,0,152.407-52.7,178.546-126.1H840.759A131.11,131.11,0,0,1,726.146-1034.753Z" fill="#ceff00"/>
    </g>
    <g id="Group_31" data-name="Group 31">
      <path id="Path_26" data-name="Path 26" d="M2572.472-1034.753c-68.017,0-124.086-52.074-130.472-118.446h260.945c-.006.054-.015.108-.02.162h58.6c.284-4.235.442-8.505.442-12.811,0-104.489-85.008-189.5-189.5-189.5s-189.5,85.009-189.5,189.5,85.008,189.5,189.5,189.5c82.261,0,152.414-52.7,178.553-126.1h-63.886A131.138,131.138,0,0,1,2572.472-1034.753Zm0-262.189a131.3,131.3,0,0,1,122.84,85.34h-245.68A131.3,131.3,0,0,1,2572.472-1296.942Z" fill="#ceff00"/>
    </g>
  </g>
  <g id="Group_33" data-name="Group 33" transform="translate(0 1443)">
    <path id="Path_27" data-name="Path 27" d="M313.268-1307.234,208.845-1202.443,104.423-1307.234,0-1202.443l104.423,104.791L208.845-992.86l104.423-104.791L417.69-1202.443Z" fill="#ceff00"/>
    <rect id="Rectangle_15" data-name="Rectangle 15" width="95.536" height="95.536" transform="translate(245.8 -1375.446) rotate(-45)" fill="#ceff00"/>
  </g>
</svg>
