<svg width="56" height="64" viewBox="0 0 56 64" fill="none" xmlns="http://www.w3.org/2000/svg">
<path d="M28.625 0.28125L45.625 17.2812C46 17.6562 46 18.2812 45.625 18.6562C45.25 19.0312 44.625 19.0312 44.25 18.6562L29 3.40625V42.9062C29 43.5312 28.5 43.9062 28 43.9062C27.375 43.9062 27 43.5312 27 42.9062V3.40625L11.625 18.6562C11.25 19.0312 10.625 19.0312 10.25 18.6562C9.875 18.2812 9.875 17.6562 10.25 17.2812L27.25 0.28125C27.625 -0.09375 28.25 -0.09375 28.625 0.28125ZM2 40.9062V52.9062C2 57.9062 6 61.9062 11 61.9062H45C49.875 61.9062 54 57.9062 54 52.9062V40.9062C54 40.4062 54.375 39.9062 55 39.9062C55.5 39.9062 56 40.4062 56 40.9062V52.9062C56 59.0312 51 63.9062 45 63.9062H11C4.875 63.9062 0 59.0312 0 52.9062V40.9062C0 40.4062 0.375 39.9062 1 39.9062C1.5 39.9062 2 40.4062 2 40.9062Z" fill="#CEFF00"/>
</svg>
